<?xml version="1.0" encoding="UTF-8"?>
<svg width="200" height="300" viewBox="0 0 200 300" xmlns="http://www.w3.org/2000/svg">
  <!-- Base hand shape -->
  <path
    d="M100 250 L80 200 L60 150 L50 100 L60 80 L80 70 L100 80 L120 70 L140 80 L150 100 L140 150 L120 200 L100 250"
    fill="none"
    stroke="black"
    stroke-width="2"
  />
  <!-- Fingers -->
  <path
    d="M60 80 L40 40 M80 70 L70 20 M100 80 L100 30 M120 70 L130 20 M140 80 L160 40"
    stroke="black"
    stroke-width="2"
    fill="none"
  />
  <!-- Joints -->
  <circle cx="40" cy="40" r="3" fill="black"/>
  <circle cx="70" cy="20" r="3" fill="black"/>
  <circle cx="100" cy="30" r="3" fill="black"/>
  <circle cx="130" cy="20" r="3" fill="black"/>
  <circle cx="160" cy="40" r="3" fill="black"/>
  <!-- Anatomical labels -->
  <text x="20" y="290" font-size="10">Left Hand - Front View</text>
</svg>
