<?xml version="1.0" encoding="UTF-8"?>
<svg width="300" height="400" viewBox="0 0 300 400" xmlns="http://www.w3.org/2000/svg">
  <!-- Mirrored version of left-front.svg -->
  <g transform="translate(300,0) scale(-1,1)">
    <!-- Hand outline -->
    <path
      d="M150 350 C130 330, 120 300, 110 250 L100 200 C90 150, 85 120, 90 100 C95 80, 110 70, 130 80 C150 90, 170 80, 190 90 C210 100, 220 120, 215 150 C210 180, 200 220, 190 250 L180 300 C170 330, 160 340, 150 350"
      fill="none"
      stroke="black"
      stroke-width="2"
    />
    
    <!-- Copy all the internal structures from left-front.svg -->
    <!-- [Previous finger paths and circles] -->
  </g>
  
  <!-- Update labels for right hand -->
  <text x="20" y="380" font-size="14" font-weight="bold">Right Hand - Anterior (Palm) View</text>
  
  <!-- Mirror the landmarks and legend -->
  <g id="landmarks" font-size="10">
    <text x="140" y="200">Metacarpals</text>
    <text x="200" y="150">Thenar</text>
    <text x="80" y="150">Hypothenar</text>
  </g>
  
  <g id="legend" transform="translate(20, 300)">
    <text x="0" y="0" font-size="10">Landmarks:</text>
    <text x="0" y="15" font-size="10">• MCP: Metacarpophalangeal Joint</text>
    <text x="0" y="30" font-size="10">• PIP: Proximal Interphalangeal Joint</text>
    <text x="0" y="45" font-size="10">• DIP: Distal Interphalangeal Joint</text>
  </g>
</svg>
